<svg width="98" height="54" viewBox="0 0 98 54" fill="none" xmlns="http://www.w3.org/2000/svg">
<path d="M25.2276 0.813477C26.9723 0.813477 27.8447 1.2832 27.8447 2.22265C27.8447 3.59827 26.5194 5.67848 23.8688 8.46328C21.2517 11.2481 18.6179 13.6806 15.9673 15.7608L12.0418 18.9314C11.8405 19.1663 11.7398 19.3508 11.7398 19.485C11.7398 19.6192 11.8237 19.6864 11.9915 19.6864C14.642 17.9752 17.0242 17.0861 19.138 17.019C19.5406 17.019 19.9097 17.1364 20.2452 17.3713C21.3859 18.3107 21.9563 19.4012 21.9563 20.6426C21.9563 21.884 20.6814 23.981 18.1314 26.9335C19.2051 26.6651 20.6646 25.9773 22.5099 24.8701C24.3888 23.7293 25.9825 22.6557 27.2911 21.6491L29.2538 20.1393C29.5558 20.3742 29.7068 20.6594 29.7068 20.9949C29.7068 21.3304 29.5558 21.6324 29.2538 21.9008C23.7178 27.0342 19.5238 29.6009 16.6719 29.6009C16.4706 29.6009 16.1686 29.5674 15.766 29.5002L15.8667 29.3493C13.8871 31.2953 11.9076 32.9225 9.92801 34.231C7.94846 35.506 6.3212 36.1435 5.04623 36.1435C1.89236 36.1435 0.31543 35.0698 0.31543 32.9225C0.31543 31.8489 0.667724 30.5907 1.37231 29.148C2.04335 27.6717 2.86536 26.2793 3.83837 24.9708C4.81137 23.6287 5.78437 22.3705 6.75737 21.1962C7.76393 20.0219 8.60272 19.0824 9.27376 18.3778C9.97834 17.6732 10.3306 17.3377 10.3306 17.3713C12.7128 14.62 14.7762 12.0869 16.5209 9.7718C18.2992 7.42318 19.4735 5.76236 20.0439 4.78936C20.6143 3.78281 21.1846 2.92724 21.755 2.22265C22.3254 1.51806 22.7951 1.11544 23.1642 1.01479C23.5668 0.88058 24.2546 0.813477 25.2276 0.813477ZM4.9959 33.3251C6.37153 33.3251 8.14977 32.3521 10.3306 30.4061C12.5451 28.4601 14.424 26.4303 15.9673 24.3165C17.5443 22.2027 18.3327 20.8271 18.3327 20.1896C18.3327 20.089 18.2824 20.0386 18.1818 20.0386C16.4371 20.0386 14.4575 20.9781 12.2431 22.857C10.0287 24.7359 8.2001 26.6987 6.75737 28.7453C5.3482 30.792 4.64361 32.2012 4.64361 32.9729C4.64361 33.2077 4.76104 33.3251 4.9959 33.3251Z" fill="black"/>
<path d="M37.4844 10.1744C37.8199 10.1744 38.038 10.2415 38.1386 10.3757C38.6084 10.9461 38.8432 11.4158 38.8432 11.7849C38.8432 12.1204 38.7426 12.4224 38.5413 12.6908C38.34 12.9257 38.0883 13.2109 37.7863 13.5464C37.5179 13.8483 36.9475 14.2845 36.0752 14.8549C35.2364 15.3917 34.4144 15.6601 33.6091 15.6601C33.0052 15.5595 32.7033 15.1904 32.7033 14.5529C32.7033 13.5464 33.3072 12.5734 34.515 11.6339C35.7229 10.6609 36.7127 10.1744 37.4844 10.1744ZM25.4057 30.0035C25.1373 30.4733 25.0031 30.8926 25.0031 31.2617C25.0031 31.6308 25.2044 31.8153 25.607 31.8153C25.8419 31.8153 26.2445 31.7147 26.8149 31.5134C33.0891 28.2253 39.2291 24.35 45.2348 19.8877C45.5368 20.1225 45.6878 20.4077 45.6878 20.7432C45.6878 21.0788 45.52 21.3975 45.1845 21.6995C44.849 22.0014 44.3625 22.4376 43.725 23.008C43.1211 23.5784 41.9468 24.6017 40.2021 26.078C38.4574 27.5542 36.8301 28.8963 35.3203 30.1042C31.3612 33.2916 28.4422 35.1705 26.5633 35.7409C25.9593 35.9086 25.3051 35.9925 24.6005 35.9925C22.017 35.9925 20.7253 34.6169 20.7253 31.8656C20.7253 30.792 21.3124 29.2654 22.4867 27.2858C23.661 25.2727 24.8689 23.5113 26.1103 22.0014C27.3517 20.458 28.1738 19.6025 28.5764 19.4347C29.1803 19.0656 29.8346 18.8811 30.5392 18.8811C31.2437 18.8811 31.9148 19.0153 32.5523 19.2837C32.7536 19.3844 32.8542 19.5186 32.8542 19.6864C32.8542 19.8541 32.6865 20.1057 32.351 20.4413C32.049 20.7768 31.5625 21.2968 30.8915 22.0014C30.254 22.706 29.281 23.9307 27.9724 25.6753C26.6975 27.3865 25.8419 28.8292 25.4057 30.0035Z" fill="black"/>
<path d="M53.7807 20.3909C54.284 20.76 54.5356 21.1123 54.5356 21.4478C54.5356 21.7498 54.3846 22.035 54.0827 22.3034C53.8143 22.5718 52.2541 24.6352 49.4022 28.4937C46.5503 32.3186 44.6211 34.9524 43.6145 36.3951C42.6415 37.8379 41.9537 38.878 41.5511 39.5155C41.1485 40.1865 40.3097 41.3608 39.0347 43.0384C37.7933 44.716 36.5351 46.2258 35.2601 47.5679C33.9852 48.9435 32.4586 50.252 30.6803 51.4934C28.8685 52.7684 27.1406 53.5736 25.4966 53.9092C24.792 53.9092 24.0874 53.7582 23.3828 53.4562C22.0407 52.8858 21.3697 51.829 21.3697 50.2856C21.3697 48.3396 23.1983 46.0413 26.8554 43.3907C30.479 40.7736 33.1799 39.4651 34.9582 39.4651C35.2266 39.4651 35.3608 39.5155 35.3608 39.6161C35.3608 39.7168 35.193 39.8845 34.8575 40.1194C31.9721 42.0989 29.355 44.2295 27.0064 46.511C24.6242 48.8261 23.4331 50.4701 23.4331 51.4431C23.4331 51.5773 23.5338 51.6444 23.7351 51.6444C23.9364 51.6444 24.3726 51.4263 25.0436 50.9902C26.6541 49.8494 28.9356 47.7692 31.8882 44.7495C35.1427 41.1259 37.139 38.8109 37.8772 37.8043C39.1857 36.0261 40.7458 34.1807 42.5576 32.2683L43.5642 31.2114C43.5977 31.1443 43.6481 31.0772 43.7152 31.0101C43.7823 30.943 43.8662 30.8255 43.9668 30.6578C44.2352 30.2216 44.3527 30.0035 44.3191 30.0035C44.2185 30.0035 44.0004 30.1713 43.6649 30.5068C43.3293 30.8423 42.8428 31.312 42.2054 31.916C41.6014 32.4864 40.5613 33.2748 39.085 34.2814C37.6088 35.2544 36.4177 35.7409 35.5118 35.7409C34.6059 35.7409 33.9013 35.4389 33.398 34.835C32.8947 34.231 32.6431 33.5936 32.6431 32.9225C32.6431 32.2179 33.0793 31.1778 33.9516 29.8022C34.824 28.4266 35.9647 26.9335 37.3739 25.3231C38.7831 23.7126 40.5949 22.2195 42.8093 20.8439C45.0573 19.4683 47.3555 18.6462 49.7042 18.3778C51.0798 18.6798 51.9689 19.1663 52.3715 19.8373C52.4386 19.8038 52.5729 19.787 52.7742 19.787C52.9755 19.787 53.311 19.9883 53.7807 20.3909ZM38.1791 31.0101C39.0515 30.943 40.5613 30.1377 42.7086 28.5943C44.8895 27.051 46.8523 25.5076 48.597 23.9642C50.3752 22.4208 51.2643 21.5317 51.2643 21.2968C51.2643 21.2297 51.1972 21.1962 51.063 21.1962C49.3183 21.5653 47.3723 22.4879 45.225 23.9642C43.0777 25.4405 41.333 26.8664 39.9909 28.2421C38.6489 29.6177 37.9778 30.49 37.9778 30.8591C37.9778 30.9597 38.0449 31.0101 38.1791 31.0101Z" fill="black"/>
<path d="M64.3149 30.6075C69.3141 27.9233 74.8166 24.35 80.8224 19.8877C81.1244 20.1225 81.2753 20.4077 81.2753 20.7432C81.2753 21.0788 81.1076 21.3975 80.7721 21.6995C80.4366 22.0014 79.9501 22.4376 79.3126 23.008C78.7086 23.5784 77.5343 24.6017 75.7896 26.078C74.0449 27.5542 72.4177 28.8963 70.9079 30.1042C66.9487 33.2916 64.0297 35.1705 62.1508 35.7409C61.5469 35.9086 60.8926 35.9925 60.1881 35.9925C59.0473 35.9925 58.4769 35.1034 58.4769 33.3251C58.4769 32.9561 58.6279 32.4025 58.9299 31.6643C59.2654 30.9262 59.4499 30.5068 59.4835 30.4061C59.5506 30.2719 59.6009 30.1713 59.6344 30.1042C59.668 30.0371 59.7016 29.9867 59.7351 29.9532C59.7687 29.8861 59.7854 29.819 59.7854 29.7519C59.7854 29.6848 59.6848 29.6512 59.4835 29.6512C59.3157 29.6512 58.7621 30.1042 57.8227 31.0101C56.8832 31.8824 56.0947 32.587 55.4573 33.1238C54.8533 33.6607 54.1487 34.1639 53.3435 34.6337C52.5718 35.1034 51.9343 35.3383 51.431 35.3383C50.089 35.3383 49.4179 34.7175 49.4179 33.4761C49.4179 32.738 49.6696 31.8321 50.1728 30.7584C51.3472 28.2756 53.1086 25.7928 55.4573 23.3099C57.8059 20.8271 59.4835 19.5689 60.49 19.5354C60.8591 19.5354 61.1946 19.6696 61.4966 19.938C61.7985 20.2064 61.9495 20.5084 61.9495 20.8439C61.9495 21.1794 61.614 21.6827 60.943 22.3537C60.2719 23.0248 59.4164 23.8971 58.3763 24.9708C57.3697 26.0109 56.6483 26.8832 56.2122 27.5878C55.8096 28.2924 55.6082 28.7621 55.6082 28.997C55.6082 29.2318 55.7424 29.3493 56.0109 29.3493C56.2793 29.3493 56.7658 29.1312 57.4704 28.695C59.3828 27.3865 61.5637 25.776 64.013 23.8635C66.4958 21.9511 68.0895 20.5587 68.7941 19.6864C68.9618 19.0824 69.4651 18.7805 70.3039 18.7805C71.9144 18.7805 72.7196 19.0656 72.7196 19.636C72.7196 19.8709 71.9312 20.7432 70.3542 22.2531C65.6234 26.7826 63.258 29.5841 63.258 30.6578C63.258 30.8255 63.3251 30.9094 63.4594 30.9094C63.6271 30.9094 63.9123 30.8088 64.3149 30.6075Z" fill="black"/>
<path d="M89.0407 10.1744C89.3763 10.1744 89.5944 10.2415 89.695 10.3757C90.1647 10.9461 90.3996 11.4158 90.3996 11.7849C90.3996 12.1204 90.2989 12.4224 90.0976 12.6908C89.8963 12.9257 89.6447 13.2109 89.3427 13.5464C89.0743 13.8483 88.5039 14.2845 87.6316 14.8549C86.7928 15.3917 85.9708 15.6601 85.1655 15.6601C84.5616 15.5595 84.2596 15.1904 84.2596 14.5529C84.2596 13.5464 84.8636 12.5734 86.0714 11.6339C87.2793 10.6609 88.2691 10.1744 89.0407 10.1744ZM76.9621 30.0035C76.6937 30.4733 76.5595 30.8926 76.5595 31.2617C76.5595 31.6308 76.7608 31.8153 77.1634 31.8153C77.3983 31.8153 77.8009 31.7147 78.3713 31.5134C84.6455 28.2253 90.7854 24.35 96.7912 19.8877C97.0932 20.1225 97.2442 20.4077 97.2442 20.7432C97.2442 21.0788 97.0764 21.3975 96.7409 21.6995C96.4054 22.0014 95.9189 22.4376 95.2814 23.008C94.6775 23.5784 93.5031 24.6017 91.7584 26.078C90.0138 27.5542 88.3865 28.8963 86.8767 30.1042C82.9175 33.2916 79.9985 35.1705 78.1196 35.7409C77.5157 35.9086 76.8615 35.9925 76.1569 35.9925C73.5734 35.9925 72.2816 34.6169 72.2816 31.8656C72.2816 30.792 72.8688 29.2654 74.0431 27.2858C75.2174 25.2727 76.4253 23.5113 77.6667 22.0014C78.9081 20.458 79.7301 19.6025 80.1328 19.4347C80.7367 19.0656 81.3909 18.8811 82.0955 18.8811C82.8001 18.8811 83.4712 19.0153 84.1086 19.2837C84.31 19.3844 84.4106 19.5186 84.4106 19.6864C84.4106 19.8541 84.2429 20.1057 83.9073 20.4413C83.6054 20.7768 83.1189 21.2968 82.4478 22.0014C81.8103 22.706 80.8373 23.9307 79.5288 25.6753C78.2539 27.3865 77.3983 28.8292 76.9621 30.0035Z" fill="black"/>
</svg>
