<svg width="228" height="42" viewBox="0 0 228 42" fill="none" xmlns="http://www.w3.org/2000/svg">
<path d="M8.49545 4.30609C11.2313 4.30609 13.356 4.90275 14.8695 6.09606C16.4121 7.26027 17.1833 8.97747 17.1833 11.2477C17.1833 12.9358 16.7031 14.2601 15.7426 15.2205C14.8113 16.1519 13.6325 16.8068 12.2064 17.1851C13.0213 17.3307 13.778 17.5926 14.4766 17.971C15.1751 18.3202 15.7863 18.7859 16.3102 19.368C16.8341 19.9501 17.2416 20.6486 17.5326 21.4636C17.8528 22.2494 18.0128 23.1371 18.0128 24.1267C18.0128 25.2618 17.7654 26.3096 17.2707 27.2701C16.7759 28.2014 16.0919 29.0018 15.2187 29.6712C14.3456 30.3407 13.3124 30.8646 12.119 31.2429C10.9257 31.6213 9.616 31.8105 8.18985 31.8105H0.244141V4.30609H8.49545ZM4.26065 15.7881H7.53498C8.26261 15.7881 8.96113 15.7299 9.63055 15.6135C10.3 15.497 10.8821 15.2787 11.3769 14.9586C11.9008 14.6384 12.3082 14.2164 12.5993 13.6925C12.9194 13.1395 13.0795 12.4264 13.0795 11.5533C13.0795 10.1562 12.5993 9.13755 11.6388 8.49724C10.7074 7.85692 9.45592 7.53677 7.88425 7.53677H4.26065V15.7881ZM4.26065 28.5798H7.75327C8.56822 28.5798 9.3395 28.507 10.0671 28.3615C10.7948 28.1869 11.4351 27.9104 11.9881 27.532C12.5411 27.1536 12.9776 26.6589 13.2978 26.0477C13.6471 25.4073 13.8217 24.636 13.8217 23.7338C13.8217 22.8315 13.618 22.0893 13.2105 21.5072C12.8321 20.896 12.3228 20.4012 11.6825 20.0229C11.0422 19.6445 10.3145 19.3826 9.49958 19.237C8.68464 19.0624 7.86969 18.9751 7.05475 18.9751H4.26065V28.5798Z" fill="#F52D2D"/>
<path d="M41.9857 21.3326C41.9857 23.0498 41.7238 24.5924 41.1999 25.9603C40.676 27.2992 39.9483 28.4343 39.017 29.3656C38.1147 30.297 37.0524 31.0101 35.83 31.5049C34.6076 31.9705 33.2833 32.2034 31.8571 32.2034C30.431 32.2034 29.1067 31.9851 27.8843 31.5485C26.691 31.0828 25.6432 30.4134 24.7409 29.5403C23.8677 28.638 23.1692 27.5466 22.6453 26.2659C22.1505 24.9562 21.9031 23.4573 21.9031 21.7692C21.9031 20.052 22.1651 18.524 22.689 17.1851C23.2129 15.8463 23.926 14.7257 24.8282 13.8235C25.7596 12.8921 26.8365 12.1936 28.0589 11.7279C29.2813 11.2331 30.6056 10.9857 32.0317 10.9857C33.4579 10.9857 34.7676 11.204 35.9609 11.6406C37.1834 12.0772 38.2311 12.732 39.1043 13.6052C40.0066 14.4783 40.7051 15.5698 41.1999 16.8795C41.7238 18.1602 41.9857 19.6445 41.9857 21.3326ZM37.9692 21.5509C37.9692 20.183 37.7946 19.0188 37.4453 18.0583C37.096 17.0978 36.6304 16.312 36.0483 15.7008C35.4953 15.0896 34.8549 14.653 34.1273 14.391C33.3997 14.1 32.6575 13.9545 31.9008 13.9545C31.144 13.9545 30.4019 14.0709 29.6742 14.3037C28.9466 14.5366 28.3063 14.944 27.7533 15.5261C27.2003 16.1082 26.7492 16.8941 26.3999 17.8837C26.0797 18.8441 25.9197 20.0665 25.9197 21.5509C25.9197 22.9188 26.0943 24.0976 26.4436 25.0872C26.7928 26.0476 27.2439 26.8335 27.7969 27.4447C28.379 28.0559 29.0339 28.507 29.7615 28.7981C30.4892 29.0891 31.2314 29.2347 31.9881 29.2347C32.7448 29.2347 33.487 29.1182 34.2146 28.8854C34.9423 28.6235 35.5826 28.2014 36.1356 27.6193C36.6886 27.0081 37.1251 26.2223 37.4453 25.2618C37.7946 24.2722 37.9692 23.0353 37.9692 21.5509Z" fill="#F52D2D"/>
<path d="M65.4773 21.3326C65.4773 23.0498 65.2154 24.5924 64.6915 25.9603C64.1676 27.2992 63.44 28.4343 62.5086 29.3656C61.6063 30.297 60.544 31.0101 59.3216 31.5049C58.0992 31.9705 56.7749 32.2034 55.3487 32.2034C53.9226 32.2034 52.5983 31.9851 51.3759 31.5485C50.1826 31.0828 49.1348 30.4134 48.2325 29.5403C47.3594 28.638 46.6608 27.5466 46.1369 26.2659C45.6422 24.9562 45.3948 23.4573 45.3948 21.7692C45.3948 20.052 45.6567 18.524 46.1806 17.1851C46.7045 15.8463 47.4176 14.7257 48.3198 13.8235C49.2512 12.8921 50.3281 12.1936 51.5505 11.7279C52.7729 11.2331 54.0972 10.9857 55.5234 10.9857C56.9495 10.9857 58.2592 11.204 59.4526 11.6406C60.675 12.0772 61.7228 12.732 62.5959 13.6052C63.4982 14.4783 64.1967 15.5698 64.6915 16.8795C65.2154 18.1602 65.4773 19.6445 65.4773 21.3326ZM61.4608 21.5509C61.4608 20.183 61.2862 19.0188 60.9369 18.0583C60.5877 17.0978 60.122 16.312 59.5399 15.7008C58.9869 15.0896 58.3466 14.653 57.6189 14.391C56.8913 14.1 56.1491 13.9545 55.3924 13.9545C54.6356 13.9545 53.8935 14.0709 53.1658 14.3037C52.4382 14.5366 51.7979 14.944 51.2449 15.5261C50.6919 16.1082 50.2408 16.8941 49.8915 17.8837C49.5714 18.8441 49.4113 20.0665 49.4113 21.5509C49.4113 22.9188 49.5859 24.0976 49.9352 25.0872C50.2844 26.0476 50.7356 26.8335 51.2886 27.4447C51.8707 28.0559 52.5255 28.507 53.2532 28.7981C53.9808 29.0891 54.723 29.2347 55.4797 29.2347C56.2364 29.2347 56.9786 29.1182 57.7062 28.8854C58.4339 28.6235 59.0742 28.2014 59.6272 27.6193C60.1802 27.0081 60.6168 26.2223 60.9369 25.2618C61.2862 24.2722 61.4608 23.0353 61.4608 21.5509Z" fill="#F52D2D"/>
<path d="M73.9943 24.3013V31.8105H70.1961V0.813477H73.9943V20.1102L82.2456 11.2913H87.0043L78.5784 19.9356L87.3973 31.8105H82.8569L76.0462 22.2494L73.9943 24.3013Z" fill="#F52D2D"/>
<path d="M91.143 31.8105V11.2913H94.9848V31.8105H91.143ZM93.0639 6.00875C92.3945 6.00875 91.8124 5.79046 91.3176 5.35388C90.8519 4.8882 90.6191 4.32065 90.6191 3.65123C90.6191 2.98181 90.8519 2.41426 91.3176 1.94858C91.8124 1.4829 92.3945 1.25005 93.0639 1.25005C93.7042 1.25005 94.2718 1.4829 94.7665 1.94858C95.2613 2.41426 95.5087 2.98181 95.5087 3.65123C95.5087 4.32065 95.2613 4.8882 94.7665 5.35388C94.2718 5.79046 93.7042 6.00875 93.0639 6.00875Z" fill="#F52D2D"/>
<path d="M105.118 31.8105H101.276V11.2913H104.288L104.856 14.1291C105.874 13.1104 106.937 12.3391 108.043 11.8152C109.178 11.2622 110.473 10.9857 111.928 10.9857C114.024 10.9857 115.668 11.5824 116.861 12.7757C118.055 13.9399 118.651 15.5698 118.651 17.6654V31.8105H114.81V18.2329C114.81 16.9814 114.475 15.9918 113.805 15.2642C113.165 14.5075 112.176 14.1291 110.837 14.1291C108.799 14.1291 106.893 15.0459 105.118 16.8795V31.8105Z" fill="#F52D2D"/>
<path d="M124.078 18.1019C124.078 16.9668 124.282 15.9627 124.689 15.0896C125.097 14.1873 125.664 13.4306 126.392 12.8194C127.149 12.2081 128.036 11.757 129.055 11.466C130.074 11.1458 131.18 10.9857 132.373 10.9857C132.809 10.9857 133.232 11.0148 133.639 11.073C134.046 11.1313 134.454 11.204 134.861 11.2913H143.724V14.1291H142.371L138.878 13.6489C139.431 14.231 139.853 14.9004 140.144 15.6571C140.464 16.4138 140.624 17.2142 140.624 18.0583C140.624 19.1934 140.42 20.2121 140.013 21.1143C139.606 21.9875 139.038 22.7297 138.31 23.3409C137.583 23.9521 136.71 24.4178 135.691 24.7379C134.672 25.029 133.566 25.1745 132.373 25.1745C131.471 25.1745 130.685 25.1163 130.015 24.9999C129.346 25.2327 128.88 25.5383 128.618 25.9167C128.356 26.2659 128.225 26.6443 128.225 27.0518C128.225 27.7212 128.444 28.1723 128.88 28.4052C129.346 28.638 129.957 28.7544 130.714 28.7544H136.127C138.398 28.7544 140.129 29.2783 141.323 30.3261C142.545 31.3448 143.156 32.7418 143.156 34.5173C143.156 35.6524 142.909 36.671 142.414 37.5733C141.919 38.4756 141.206 39.2468 140.275 39.8872C139.373 40.5275 138.267 41.0077 136.957 41.3279C135.647 41.6771 134.177 41.8518 132.548 41.8518C129.579 41.8518 127.207 41.3133 125.431 40.2364C123.685 39.1886 122.812 37.6315 122.812 35.565C122.812 34.4881 123.147 33.5859 123.816 32.8583C124.515 32.1306 125.417 31.5776 126.523 31.1993C125.941 30.7918 125.504 30.3698 125.213 29.9332C124.922 29.4675 124.776 28.8563 124.776 28.0996C124.776 27.1973 125.038 26.426 125.562 25.7857C126.115 25.1454 126.857 24.636 127.789 24.2577C126.625 23.7338 125.708 22.9771 125.038 21.9875C124.398 20.9688 124.078 19.6736 124.078 18.1019ZM128.749 31.8105C127.265 32.4799 126.523 33.5277 126.523 34.9538C126.523 37.5151 128.589 38.7957 132.722 38.7957C133.945 38.7957 134.978 38.6793 135.822 38.4464C136.666 38.2136 137.35 37.908 137.874 37.5296C138.398 37.1513 138.776 36.7292 139.009 36.2636C139.271 35.7979 139.402 35.3176 139.402 34.8229C139.402 33.6004 138.98 32.7855 138.136 32.378C137.321 31.9997 136.288 31.8105 135.036 31.8105H128.749ZM136.739 18.1893C136.739 16.6467 136.331 15.5116 135.516 14.784C134.73 14.0563 133.683 13.6925 132.373 13.6925C131.063 13.6925 130.001 14.0563 129.186 14.784C128.4 15.5116 128.007 16.5885 128.007 18.0146C128.007 19.5281 128.4 20.6486 129.186 21.3763C130.001 22.0748 131.063 22.4241 132.373 22.4241C133.683 22.4241 134.73 22.0748 135.516 21.3763C136.331 20.6777 136.739 19.6154 136.739 18.1893Z" fill="#F52D2D"/>
<path d="M146.539 29.453C146.539 28.6962 146.801 28.0559 147.325 27.532C147.849 27.0081 148.475 26.7462 149.202 26.7462C149.93 26.7462 150.541 27.0081 151.036 27.532C151.56 28.0559 151.822 28.6962 151.822 29.453C151.822 30.297 151.56 30.9664 151.036 31.4612C150.541 31.956 149.93 32.2034 149.202 32.2034C148.475 32.2034 147.849 31.956 147.325 31.4612C146.801 30.9664 146.539 30.297 146.539 29.453Z" fill="#F52D2D"/>
<path d="M166.095 29.2347C167.026 29.2347 167.841 29.1328 168.54 28.9291C169.238 28.7253 169.922 28.4634 170.592 28.1432L171.421 31.0246C169.85 31.8105 167.972 32.2034 165.789 32.2034C164.305 32.2034 162.908 31.9851 161.598 31.5485C160.318 31.1119 159.183 30.4571 158.193 29.5839C157.233 28.6817 156.476 27.5757 155.923 26.2659C155.37 24.9271 155.093 23.37 155.093 21.5946C155.093 19.9647 155.355 18.4949 155.879 17.1851C156.403 15.8754 157.131 14.7694 158.062 13.8671C158.993 12.9358 160.114 12.2227 161.424 11.7279C162.733 11.2331 164.174 10.9857 165.746 10.9857C166.648 10.9857 167.521 11.0585 168.365 11.204C169.238 11.3204 170.228 11.626 171.334 12.1208L170.461 15.0459C169.122 14.2892 167.681 13.9108 166.139 13.9108C164.014 13.9108 162.297 14.5802 160.987 15.9191C159.677 17.2288 159.023 19.077 159.023 21.4636C159.023 22.9479 159.226 24.1849 159.634 25.1745C160.041 26.1641 160.58 26.9645 161.249 27.5757C161.918 28.1578 162.675 28.5798 163.519 28.8417C164.363 29.1037 165.222 29.2347 166.095 29.2347Z" fill="#F52D2D"/>
<path d="M193.168 21.3326C193.168 23.0498 192.906 24.5924 192.382 25.9603C191.858 27.2992 191.13 28.4343 190.199 29.3656C189.297 30.297 188.234 31.0101 187.012 31.5049C185.79 31.9705 184.465 32.2034 183.039 32.2034C181.613 32.2034 180.289 31.9851 179.066 31.5485C177.873 31.0828 176.825 30.4134 175.923 29.5403C175.05 28.638 174.351 27.5466 173.827 26.2659C173.333 24.9562 173.085 23.4573 173.085 21.7692C173.085 20.052 173.347 18.524 173.871 17.1851C174.395 15.8463 175.108 14.7257 176.01 13.8235C176.942 12.8921 178.018 12.1936 179.241 11.7279C180.463 11.2331 181.788 10.9857 183.214 10.9857C184.64 10.9857 185.95 11.204 187.143 11.6406C188.365 12.0772 189.413 12.732 190.286 13.6052C191.189 14.4783 191.887 15.5698 192.382 16.8795C192.906 18.1602 193.168 19.6445 193.168 21.3326ZM189.151 21.5509C189.151 20.183 188.977 19.0188 188.627 18.0583C188.278 17.0978 187.812 16.312 187.23 15.7008C186.677 15.0896 186.037 14.653 185.309 14.391C184.582 14.1 183.839 13.9545 183.083 13.9545C182.326 13.9545 181.584 14.0709 180.856 14.3037C180.129 14.5366 179.488 14.944 178.935 15.5261C178.382 16.1082 177.931 16.8941 177.582 17.8837C177.262 18.8441 177.102 20.0665 177.102 21.5509C177.102 22.9188 177.276 24.0976 177.625 25.0872C177.975 26.0476 178.426 26.8335 178.979 27.4447C179.561 28.0559 180.216 28.507 180.943 28.7981C181.671 29.0891 182.413 29.2347 183.17 29.2347C183.927 29.2347 184.669 29.1182 185.397 28.8854C186.124 28.6235 186.765 28.2014 187.318 27.6193C187.871 27.0081 188.307 26.2223 188.627 25.2618C188.977 24.2722 189.151 23.0353 189.151 21.5509Z" fill="#F52D2D"/>
<path d="M201.685 31.8105H197.843V11.2913H200.812L201.379 14.1291C202.34 13.1686 203.373 12.4119 204.479 11.8589C205.585 11.2768 206.909 10.9857 208.452 10.9857C209.907 10.9857 211.1 11.2913 212.032 11.9025C212.963 12.4846 213.661 13.2996 214.127 14.3474C215.146 13.2705 216.266 12.441 217.489 11.8589C218.711 11.2768 220.065 10.9857 221.549 10.9857C223.645 10.9857 225.216 11.5824 226.264 12.7757C227.341 13.9399 227.879 15.5698 227.879 17.6654V31.8105H224.037V18.3639C224.037 16.9959 223.746 15.9482 223.164 15.2205C222.582 14.4929 221.622 14.1291 220.283 14.1291C218.304 14.1291 216.456 15.0168 214.738 16.7922C214.767 16.9377 214.782 17.0833 214.782 17.2288C214.782 17.3743 214.782 17.5198 214.782 17.6654V31.8105H210.94V18.3639C210.94 16.9959 210.649 15.9482 210.067 15.2205C209.485 14.4929 208.524 14.1291 207.186 14.1291C205.206 14.1291 203.373 15.0605 201.685 16.9232V31.8105Z" fill="#F52D2D"/>
</svg>
