<svg width="65" height="61" viewBox="0 0 65 61" fill="none" xmlns="http://www.w3.org/2000/svg">
<path fill-rule="evenodd" clip-rule="evenodd" d="M51.6548 0.154907H14.0158V4.60201H0.928711V25.4615C0.928711 33.5233 9.76353 40.1572 18.4332 40.8474C21.2793 43.953 26.2854 46.2089 30.7409 47.1708V52.6229C26.4802 53.9558 18.8694 57.0873 18.4332 60.4992H47.6737C47.2332 57.0873 38.8473 53.9515 34.5781 52.6229V47.1708C39.0506 46.2089 44.2812 43.953 47.1315 40.8474C55.797 40.1572 64.2421 33.5233 64.2421 25.4615V4.60201H51.6548V0.154907ZM4.94801 8.55307H13.7108V26.5226C13.7108 30.0682 14.6087 33.4413 16.1885 36.4779C9.63224 34.3514 4.94801 28.8734 4.94801 22.4637V8.55307ZM39.2708 30.4694L32.7315 26.7987L26.1838 30.4694L27.4332 22.7053L22.1391 17.21L29.4534 16.0756L32.7315 9.01891L36.0012 16.0756L43.3155 17.21L38.0214 22.7053L39.2708 30.4694ZM48.9908 37.0516C50.5791 33.877 51.4897 30.3659 51.4897 26.652V8.66953H60.2737V22.412C60.2737 29.1107 55.5682 34.8302 48.9908 37.0516Z" fill="#F8F8F8"/>
</svg>
