<svg width="23" height="36" viewBox="0 0 23 36" fill="none" xmlns="http://www.w3.org/2000/svg">
<path d="M11.5 27.1147C6.21 27.1147 5.75 24.569 5.75 24.1546H0C0 26.8779 1.8975 31.703 8.625 32.7983V35.9952H14.375V32.7983C20.125 31.7918 23 27.9732 23 24.1546C23 20.8392 21.505 15.2741 11.5 15.2741C5.75 15.2741 5.75 13.4092 5.75 12.3139C5.75 11.2187 7.7625 9.35376 11.5 9.35376C15.2375 9.35376 15.4962 11.2483 15.525 12.3139H21.275C21.2361 10.2973 20.5317 8.35442 19.2776 6.80492C18.0235 5.25543 16.2945 4.19165 14.375 3.78865V0.473267H8.625V3.69985C2.875 4.6767 0 8.49531 0 12.3139C0 15.6293 1.495 21.1944 11.5 21.1944C17.25 21.1944 17.25 23.2073 17.25 24.1546C17.25 25.1018 15.4675 27.1147 11.5 27.1147Z" fill="#F8F8F8"/>
</svg>
