<svg width="58" height="60" viewBox="0 0 58 60" fill="none" xmlns="http://www.w3.org/2000/svg">
<path d="M28.5 38.1147C23.21 38.1147 22.75 35.569 22.75 35.1546H17C17 37.8779 18.8975 42.703 25.625 43.7983V46.9952H31.375V43.7983C37.125 42.7918 40 38.9732 40 35.1546C40 31.8392 38.505 26.2741 28.5 26.2741C22.75 26.2741 22.75 24.4092 22.75 23.3139C22.75 22.2187 24.7625 20.3538 28.5 20.3538C32.2375 20.3538 32.4962 22.2483 32.525 23.3139H38.275C38.2361 21.2973 37.5317 19.3544 36.2776 17.8049C35.0235 16.2554 33.2945 15.1917 31.375 14.7887V11.4733H25.625V14.6998C19.875 15.6767 17 19.4953 17 23.3139C17 26.6293 18.495 32.1944 28.5 32.1944C34.25 32.1944 34.25 34.2073 34.25 35.1546C34.25 36.1018 32.4675 38.1147 28.5 38.1147Z" fill="#F8F8F8"/>
<path d="M8.7 0.30896H0V6.19548H5.8V56.2309C5.8 57.0115 6.10554 57.7602 6.64939 58.3121C7.19325 58.8641 7.93087 59.1742 8.7 59.1742H49.3C50.0691 59.1742 50.8068 58.8641 51.3506 58.3121C51.8945 57.7602 52.2 57.0115 52.2 56.2309V6.19548H58V0.30896H8.7ZM46.4 53.2877H11.6V6.19548H46.4V53.2877Z" fill="#F8F8F8"/>
</svg>
