<svg width="105" height="120" viewBox="0 0 105 120" fill="none" xmlns="http://www.w3.org/2000/svg">
<g clip-path="url(#clip0_89_53)">
<path d="M52.5066 68.8267C57.3147 68.8267 61.227 64.8667 61.227 60C61.227 55.1333 57.3147 51.1733 52.5066 51.1733C47.6986 51.1733 43.7863 55.1333 43.7863 60C43.7863 64.8667 47.6986 68.8267 52.5066 68.8267ZM52.5066 54.4933C55.4968 54.4933 57.9338 56.96 57.9338 59.9867C57.9338 63.0133 55.4968 65.48 52.5066 65.48C49.5164 65.48 47.0794 63.0133 47.0794 59.9867C47.0794 56.96 49.5164 54.4933 52.5066 54.4933Z" fill="black"/>
<path d="M95.6737 52.4133C104.025 43.0133 106.844 35.2533 103.841 30C101.325 25.5867 95.1205 23.88 85.8732 25.04C84.7931 25.1733 84.0159 26.1733 84.1608 27.2667C84.2925 28.36 85.2804 29.1333 86.3606 29C93.6847 28.08 98.8089 29.1733 100.429 31.9867C102.405 35.4533 99.5334 42.08 92.7494 49.7333C90.51 52.2533 87.9282 54.8133 85.0565 57.36C81.3154 54.2267 77.1924 51.12 72.7927 48.1333C72.437 42.8667 71.8574 37.6933 71.0407 32.8C74.571 31.5867 77.9959 30.6 81.1969 29.8933C82.2639 29.6667 82.9489 28.6 82.7118 27.52C82.4878 26.44 81.434 25.7467 80.367 25.9867C77.1792 26.68 73.807 27.6533 70.3162 28.8267C67.0098 12.3867 61.0031 0 52.5066 0C49.5296 0 45.2089 1.68 41.099 9.41333C40.8092 9.37333 40.5326 9.32 40.2296 9.32C36.5017 9.32 33.472 12.3867 33.472 16.16C33.472 18.4933 34.6312 20.56 36.3964 21.7867C35.7772 24.0267 35.224 26.3733 34.7234 28.8133C19.0083 23.4533 5.41405 22.5467 1.15925 29.9867C-0.434651 32.7733 -1.14598 37.8533 4.49196 46.24C5.11108 47.1467 6.33614 47.3867 7.23189 46.7733C8.12764 46.1467 8.36475 44.9067 7.7588 44C4.26802 38.8 3.13516 34.5467 4.58417 32C7.19237 27.44 18.5078 27.52 33.9857 32.8C33.169 37.6267 32.5894 42.7733 32.2338 48.1333C27.8209 51.12 23.6978 54.2267 19.9699 57.36C16.4528 54.24 13.3704 51.12 10.8544 48.1067C10.1562 47.2667 8.90483 47.1467 8.07495 47.8667C7.24506 48.5733 7.12651 49.84 7.83784 50.68C10.367 53.72 13.4494 56.8533 16.9402 59.9867C14.1212 62.52 11.5526 65.0667 9.32636 67.5733C0.988006 76.9867 -1.83096 84.7333 1.15925 90C2.58191 92.5067 5.95413 95.32 13.8578 95.32C14.2003 95.32 14.5559 95.32 14.9116 95.3067C15.017 95.5733 15.1224 95.8533 15.2673 96.12C16.466 98.2267 18.7185 99.5467 21.1291 99.5467C22.3147 99.5467 23.4739 99.2267 24.5014 98.6267C26.5036 97.4533 27.676 95.4 27.8604 93.24C30.0866 92.6667 32.3655 92 34.7234 91.2C38.0034 107.64 44.0234 120.027 52.5066 120.027C57.8811 120.027 62.7023 114.827 66.4434 104.973C66.8386 103.947 66.3249 102.787 65.3106 102.387C64.2962 101.987 63.1502 102.507 62.755 103.533C59.7385 111.467 56.0106 116.027 52.5066 116.027C47.3166 116.027 41.7182 106.053 38.4908 89.84C43.0354 88.1333 47.7513 86.08 52.5066 83.7067C57.1961 86.04 61.9252 88.1067 66.5224 89.84C65.956 92.7467 65.2974 95.5067 64.5597 98.08C64.2567 99.1333 64.8627 100.253 65.9033 100.56C66.0877 100.613 66.2722 100.64 66.4566 100.64C67.3128 100.64 68.1032 100.067 68.3535 99.2C69.078 96.6933 69.7103 94 70.2767 91.2C78.0486 93.8533 85.32 95.4267 91.1818 95.4267C97.0437 95.4267 101.707 93.8 103.841 90.04C105.329 87.44 106.054 82.8133 101.509 75.36C101.694 75.12 101.852 74.88 101.997 74.6133C103.867 71.3467 102.748 67.1467 99.5202 65.2667C98.4927 64.6667 97.3203 64.3467 96.148 64.3467C95.1337 64.3467 94.1589 64.5867 93.2631 65.0133C91.6561 63.36 89.9173 61.6933 88.0731 60.0267C90.892 57.4933 93.4475 54.9467 95.6737 52.44V52.4133ZM81.9873 60C79.2078 62.3067 76.2176 64.6 73.043 66.84C73.1352 64.5733 73.1879 62.3067 73.1879 60C73.1879 57.6933 73.1352 55.4533 73.0561 53.1733C76.2176 55.4133 79.221 57.6933 82.0004 60H81.9873ZM68.6301 45.4133C66.7332 44.2133 64.81 43.0267 62.8472 41.88C60.9109 40.7467 58.9349 39.6533 56.9459 38.5867C60.4366 36.9333 63.8879 35.44 67.2469 34.16C67.8265 37.6667 68.2876 41.4267 68.6301 45.4V45.4133ZM40.2296 13.32C40.5985 13.32 40.9541 13.4 41.2703 13.5333C41.2966 13.5333 41.3098 13.5467 41.3361 13.56C42.3373 14 43.0354 15 43.0354 16.1733C43.0354 17.7333 41.7708 19.0133 40.2296 19.0133C38.6884 19.0133 37.4238 17.7333 37.4238 16.1733C37.4238 14.6133 38.6884 13.3333 40.2296 13.3333V13.32ZM40.1769 23C40.1769 23 40.2165 23 40.2296 23C43.9575 23 46.9873 19.9333 46.9873 16.16C46.9873 14.1333 46.0915 12.3333 44.7084 11.08C47.1848 6.50667 49.9248 4 52.5066 4C57.7099 4 63.2951 13.96 66.5224 30.1733C61.9778 31.88 57.262 33.9333 52.4935 36.3067C47.8171 33.9867 43.0881 31.9067 38.4908 30.1733C38.9914 27.6667 39.5447 25.28 40.1638 23H40.1769ZM37.7795 34.1733C41.0727 35.4267 44.5239 36.8933 48.0938 38.5867C46.1179 39.64 44.1419 40.7333 42.166 41.88C40.2033 43.0267 38.2669 44.2133 36.3832 45.4133C36.7125 41.5067 37.1867 37.76 37.7663 34.1733H37.7795ZM31.9835 53.16C31.9835 53.52 31.944 53.88 31.9308 54.2533C31.8913 55.36 32.7475 56.28 33.8409 56.32C33.8672 56.32 33.8804 56.32 33.9067 56.32C34.9737 56.32 35.8431 55.4667 35.8826 54.3867C35.9221 53.04 35.988 51.7067 36.0539 50.3867C38.6621 48.6667 41.3625 46.9733 44.1419 45.3467C46.9346 43.72 49.7272 42.2 52.5198 40.7733C55.2466 42.1733 58.0392 43.6933 60.8582 45.3467C63.6376 46.9733 66.338 48.6667 68.9594 50.3867C69.1306 53.48 69.2229 56.68 69.2229 60C69.2229 63.32 69.1307 66.4667 68.9462 69.6267C66.338 71.3467 63.6376 73.0267 60.8582 74.6533C58.0787 76.28 55.2729 77.8 52.4935 79.2267C49.7667 77.8267 46.9741 76.3067 44.1551 74.6533C41.3757 73.0267 38.6753 71.3333 36.0539 69.6133C35.8958 66.5867 35.8036 63.4533 35.7904 60.2267C35.7904 59.12 34.9078 58.2267 33.8145 58.2267C32.7212 58.2267 31.8386 59.12 31.8386 60.2267C31.8386 62.4267 31.8913 64.6267 31.9703 66.8267C28.8089 64.5867 25.8055 62.2933 23.026 60C25.7923 57.6933 28.7957 55.4133 31.9703 53.1733L31.9835 53.16ZM22.5518 95.1333C21.2477 95.8933 19.4562 95.4 18.7185 94.0933C18.5341 93.7733 18.4287 93.44 18.376 93.0933C18.376 93.0933 18.376 93.0267 18.376 93.0133C18.3365 92.6667 18.3629 92.2933 18.4551 91.9467C18.6527 91.2133 19.1137 90.6 19.7592 90.2267C20.1807 89.9733 20.6681 89.84 21.1555 89.84C22.1566 89.84 23.0919 90.3867 23.5924 91.2667C24.3696 92.6267 23.9086 94.36 22.565 95.1467L22.5518 95.1333ZM27.0305 89.2933C27.0305 89.2933 27.0174 89.2533 27.0042 89.24C25.8055 87.1333 23.5529 85.8133 21.1423 85.8133C19.9568 85.8133 18.7976 86.1333 17.7701 86.7333C16.2025 87.64 15.0829 89.12 14.6218 90.8933C14.5823 91.0267 14.5823 91.1467 14.5559 91.28C9.40539 91.3867 5.88827 90.2533 4.59734 87.9867C2.62143 84.52 5.49309 77.8933 12.2771 70.24C14.5164 67.72 17.1115 65.16 19.9699 62.6C23.6978 65.7333 27.8209 68.84 32.2338 71.8267C32.5894 77.0933 33.1822 82.2667 33.9989 87.1733C31.6015 88 29.2699 88.6933 27.0174 89.28L27.0305 89.2933ZM37.7927 85.8133C37.2131 82.3067 36.752 78.5467 36.4095 74.5733C38.2932 75.7733 40.2296 76.96 42.1924 78.1067C44.1288 79.24 46.1047 80.3333 48.0938 81.4C44.603 83.0533 41.1517 84.5467 37.7927 85.8267V85.8133ZM56.9327 81.4C58.9086 80.3467 60.8845 79.2533 62.8604 78.1067C64.8232 76.96 66.7464 75.7867 68.6301 74.5867C68.3008 78.48 67.8397 82.24 67.2601 85.8133C63.9669 84.56 60.5157 83.0933 56.9459 81.4H56.9327ZM97.5706 68.68C98.9142 69.4667 99.3753 71.2133 98.5981 72.56C97.8604 73.8667 96.0689 74.36 94.7648 73.6C93.4212 72.8133 92.9602 71.0667 93.7374 69.72C94.2379 68.84 95.1732 68.2933 96.1743 68.2933C96.6617 68.2933 97.1491 68.4267 97.5706 68.68ZM90.3519 67.6533C90.3519 67.6533 90.3256 67.6933 90.3124 67.72C88.4419 70.9867 89.5616 75.1867 92.7889 77.0667C93.8164 77.6667 94.9888 77.9867 96.1611 77.9867C96.8988 77.9867 97.6101 77.8533 98.282 77.6267C100.943 82.08 101.72 85.72 100.429 87.9867C97.8209 92.5467 86.5055 92.4667 71.0144 87.1733C71.8311 82.3467 72.4238 77.1867 72.7795 71.84C77.2055 68.84 81.3154 65.7467 85.0565 62.6133C86.9534 64.2933 88.7185 65.9867 90.3519 67.6533Z" fill="black"/>
</g>
<defs>
<clipPath id="clip0_89_53">
<rect width="105" height="120" fill="white"/>
</clipPath>
</defs>
</svg>
