<svg width="66" height="65" viewBox="0 0 66 65" fill="none" xmlns="http://www.w3.org/2000/svg">
<path d="M59.2072 20.1381H46.114C44.3782 20.1398 42.7141 20.8404 41.4868 22.0861C40.2594 23.3318 39.5691 25.0208 39.5674 26.7825V40.0714C39.5685 41.2459 40.0287 42.3719 40.847 43.2024C41.6652 44.0328 42.7746 44.4999 43.9318 44.5011V60.0048C43.9329 61.1793 44.3931 62.3053 45.2114 63.1357C46.0296 63.9662 47.139 64.4333 48.2962 64.4344H57.025C58.1821 64.4333 59.2916 63.9662 60.1098 63.1357C60.928 62.3053 61.3882 61.1793 61.3894 60.0048V44.5011C62.5465 44.4999 63.656 44.0328 64.4742 43.2024C65.2924 42.3719 65.7526 41.2459 65.7538 40.0714V26.7825C65.7521 25.0208 65.0618 23.3318 63.8344 22.0861C62.6071 20.8404 60.9429 20.1398 59.2072 20.1381ZM61.3894 40.0714H57.025V60.0048H48.2962V40.0714H43.9318V26.7825C43.9318 26.1951 44.1617 25.6318 44.5709 25.2164C44.9802 24.801 45.5352 24.5677 46.114 24.5677H59.2072C59.7859 24.5677 60.341 24.801 60.7502 25.2164C61.1595 25.6318 61.3894 26.1951 61.3894 26.7825V40.0714Z" fill="white"/>
<path d="M43.9316 9.06397C43.9316 7.31172 44.4436 5.59883 45.4027 4.1419C46.3618 2.68496 47.7251 1.54941 49.3201 0.878861C50.9151 0.208306 52.6701 0.0328589 54.3634 0.374704C56.0566 0.71655 57.6119 1.56034 58.8327 2.79936C60.0534 4.03838 60.8848 5.61699 61.2216 7.33557C61.5584 9.05414 61.3855 10.8355 60.7248 12.4543C60.0642 14.0732 58.9454 15.4569 57.5099 16.4304C56.0745 17.4039 54.3869 17.9235 52.6605 17.9235C50.3461 17.9211 48.1273 16.987 46.4908 15.326C44.8543 13.665 43.934 11.4129 43.9316 9.06397ZM48.2961 9.06397C48.2961 9.94009 48.552 10.7965 49.0316 11.525C49.5112 12.2535 50.1928 12.8212 50.9903 13.1565C51.7878 13.4918 52.6653 13.5795 53.5119 13.4086C54.3585 13.2377 55.1362 12.8158 55.7466 12.1963C56.3569 11.5768 56.7726 10.7875 56.941 9.92817C57.1094 9.06888 57.023 8.17821 56.6926 7.36878C56.3623 6.55935 55.8029 5.86751 55.0852 5.38077C54.3675 4.89402 53.5237 4.63422 52.6605 4.63422C51.5033 4.63539 50.3939 5.10247 49.5756 5.93296C48.7574 6.76344 48.2972 7.88948 48.2961 9.06397Z" fill="white"/>
<path d="M30.8384 33.4269V26.7825C30.8367 25.0208 30.1464 23.3318 28.9191 22.0861C27.6917 20.8404 26.0276 20.1398 24.2918 20.1381H11.1986C9.46287 20.1398 7.79873 20.8404 6.57137 22.0861C5.34402 23.3318 4.65374 25.0208 4.652 26.7825V33.4269H0.287598V37.8566H35.2028V33.4269H30.8384ZM9.01641 26.7825C9.01641 26.1951 9.24632 25.6318 9.65556 25.2164C10.0648 24.801 10.6199 24.5677 11.1986 24.5677H24.2918C24.8706 24.5677 25.4256 24.801 25.8349 25.2164C26.2441 25.6318 26.474 26.1951 26.474 26.7825V33.4269H9.01641V26.7825Z" fill="white"/>
<path d="M9.01636 9.06397C9.01636 7.31172 9.52829 5.59883 10.4874 4.1419C11.4466 2.68496 12.8098 1.54941 14.4048 0.878861C15.9998 0.208306 17.7549 0.0328589 19.4481 0.374704C21.1413 0.71655 22.6966 1.56034 23.9174 2.79936C25.1381 4.03838 25.9695 5.61699 26.3063 7.33557C26.6431 9.05414 26.4702 10.8355 25.8096 12.4543C25.1489 14.0732 24.0301 15.4569 22.5946 16.4304C21.1592 17.4039 19.4716 17.9235 17.7452 17.9235C15.4309 17.9211 13.212 16.987 11.5755 15.326C9.93905 13.665 9.01867 11.4129 9.01636 9.06397ZM13.3808 9.06397C13.3808 9.94009 13.6367 10.7965 14.1163 11.525C14.5959 12.2535 15.2775 12.8212 16.075 13.1565C16.8725 13.4918 17.75 13.5795 18.5966 13.4086C19.4432 13.2377 20.2209 12.8158 20.8313 12.1963C21.4417 11.5768 21.8573 10.7875 22.0257 9.92817C22.1941 9.06888 22.1077 8.17821 21.7774 7.36878C21.447 6.55935 20.8876 5.86751 20.1699 5.38077C19.4522 4.89402 18.6084 4.63422 17.7452 4.63422C16.588 4.63539 15.4786 5.10247 14.6603 5.93296C13.8421 6.76344 13.3819 7.88948 13.3808 9.06397Z" fill="white"/>
</svg>
