<svg width="48" height="36" viewBox="0 0 48 36" fill="none" xmlns="http://www.w3.org/2000/svg">
<path fill-rule="evenodd" clip-rule="evenodd" d="M42.4999 0H5.50012C2.46606 0 0 2.46606 0 5.50012V30.4999C0 33.5339 2.46606 36 5.50012 36H42.4999C45.5339 36 48 33.5339 48 30.4999V5.50012C48 2.46606 45.5339 0 42.4999 0ZM24 6C27.308 6 30 8.69202 30 12C30 15.308 27.308 18 24 18C20.692 18 18 15.308 18 12C18 8.69202 20.692 6 24 6ZM32.5001 30C33.3281 30 34.0001 29.328 34.0001 28.5V25.5C34.0001 22.4659 31.5341 19.9999 28.5 19.9999H19.5C16.4659 19.9999 13.9999 22.4659 13.9999 25.5V28.5C13.9999 29.328 14.6719 30 15.4999 30H32.5001Z" fill="#B3C0CD"/>
</svg>
