<svg width="80" height="80" viewBox="0 0 80 80" fill="none" xmlns="http://www.w3.org/2000/svg">
<circle cx="40" cy="40" r="40" fill="white"/>
<path fill-rule="evenodd" clip-rule="evenodd" d="M50.7916 30H29.2084C27.4385 30 26 31.4385 26 33.2084V47.7916C26 49.5615 27.4385 51 29.2084 51H50.7916C52.5615 51 54 49.5615 54 47.7916V33.2084C54 31.4385 52.5615 30 50.7916 30ZM40 33.5C41.9297 33.5 43.5 35.0703 43.5 37C43.5 38.9297 41.9297 40.5 40 40.5C38.0703 40.5 36.5 38.9297 36.5 37C36.5 35.0703 38.0703 33.5 40 33.5ZM44.9584 47.5C45.4414 47.5 45.8334 47.108 45.8334 46.625V44.875C45.8334 43.1051 44.3949 41.6666 42.625 41.6666H37.375C35.6051 41.6666 34.1666 43.1051 34.1666 44.875V46.625C34.1666 47.108 34.5586 47.5 35.0416 47.5H44.9584Z" fill="#B3C0CD"/>
</svg>
