<svg width="148" height="32" viewBox="0 0 148 32" fill="none" xmlns="http://www.w3.org/2000/svg">
<path d="M0.879395 30.3455L1.03462 28.2499C2.74212 28.6639 3.97101 28.8709 4.72128 28.8709C7.04969 28.8709 8.22683 27.4997 8.2527 24.7573V2.75382H11.1244V24.7573C11.1244 27.7066 10.4518 29.6082 9.10645 30.4619C8.64077 30.7724 8.05867 31.0052 7.36014 31.1605C6.66162 31.3157 5.93722 31.3933 5.18696 31.3933C3.37597 31.3933 1.94012 31.044 0.879395 30.3455Z" fill="#1668E2"/>
<path d="M15.0196 26.2708V23.9036C15.0196 22.3254 15.4724 21.0707 16.3779 20.1393C17.3093 19.2079 18.5769 18.7423 20.181 18.7423C22.7422 18.7423 24.8637 18.7423 26.5453 18.7423C27.2438 18.7423 27.7871 18.7423 28.1752 18.7423C28.5891 18.7423 28.7961 18.7423 28.7961 18.7423C28.7961 17.992 28.7961 17.3581 28.7961 16.8407C28.7961 16.7372 28.7961 16.6467 28.7961 16.5691C28.7961 16.4915 28.7961 16.4268 28.7961 16.375C28.7961 16.2974 28.7961 16.2457 28.7961 16.2198C28.7961 16.1681 28.7961 16.1422 28.7961 16.1422C28.7961 14.0208 27.7354 12.96 25.6139 12.96C23.2855 12.96 19.974 13.1153 15.6794 13.4257V11.3301C18.2924 10.6057 21.6427 10.2177 25.7303 10.1659C25.7562 10.1659 25.795 10.1659 25.8468 10.1659C27.5543 10.1659 28.9513 10.6704 30.0379 11.6794C31.1245 12.6625 31.6678 14.1501 31.6678 16.1422V31.1605H29.5334L28.7961 28.6768L28.214 28.9485C27.8518 29.1296 27.3602 29.3624 26.7393 29.647C26.1184 29.9057 25.4458 30.1773 24.7214 30.4619C23.997 30.7206 23.2208 30.9406 22.393 31.1217C21.5651 31.3027 20.8277 31.3933 20.181 31.3933C18.7063 31.3933 17.4774 30.9406 16.4943 30.0351C15.5112 29.1296 15.0196 27.8748 15.0196 26.2708ZM17.8914 26.0768C17.8914 27.7066 18.6546 28.5216 20.181 28.5216C21.1123 28.5216 22.2895 28.3534 23.7124 28.0171C25.1612 27.6808 26.3771 27.3574 27.3602 27.0469L28.7961 26.5424V20.9931L20.181 21.614C19.4048 21.6916 18.8227 21.9632 18.4347 22.4289C18.0725 22.8946 17.8914 23.4638 17.8914 24.1364V26.0768Z" fill="#1668E2"/>
<path d="M35.9193 31.1605V0.813477H38.791V17.8885H40.3433L48.2211 10.554H52.2182L43.0597 19.3244L52.2182 31.1605H48.6479L40.3433 20.7602H38.791V31.1605H35.9193Z" fill="#1668E2"/>
<path d="M55.3227 31.1605V10.554H57.3407L58.1944 13.0376C58.3496 12.9342 58.6601 12.7531 59.1258 12.4943C59.6173 12.2098 59.9537 12.0157 60.1348 11.9122C60.3417 11.7829 60.6522 11.6147 61.0661 11.4078C61.5059 11.2008 61.8552 11.0585 62.1139 10.9809C62.3985 10.8774 62.7348 10.761 63.1229 10.6316C63.511 10.5023 63.899 10.4246 64.2871 10.3988C64.701 10.347 65.115 10.3212 65.5289 10.3212C66.8225 10.3212 67.9867 10.5928 69.0215 11.1361C70.0564 11.6794 70.7937 12.4167 71.2335 13.3481C73.6654 11.3301 76.4336 10.3212 79.5382 10.3212C81.3492 10.3212 82.8627 10.9421 84.0786 12.1839C85.2946 13.4257 85.9025 15.0168 85.9025 16.9571V31.1605H83.0308V16.9571C83.0308 15.8188 82.6945 14.9133 82.0218 14.2407C81.3751 13.5421 80.5472 13.1929 79.5382 13.1929C77.9859 13.1929 76.6406 13.3481 75.5023 13.6586C74.3898 13.969 73.1997 14.5382 71.9321 15.3661V16.8795V31.1605H69.0603V16.9571C69.0603 15.8188 68.724 14.9133 68.0514 14.2407C67.4046 13.5421 66.5638 13.1929 65.5289 13.1929C64.5717 13.1929 63.6662 13.2964 62.8124 13.5033C61.9846 13.7103 61.3378 13.9173 60.8721 14.1242C60.4064 14.3053 59.5139 14.7193 58.1944 15.3661V31.1605H55.3227Z" fill="#1668E2"/>
<path d="M89.4121 26.2708V23.9036C89.4121 22.3254 89.8649 21.0707 90.7704 20.1393C91.7017 19.2079 92.9694 18.7423 94.5734 18.7423C97.1347 18.7423 99.2561 18.7423 100.938 18.7423C101.636 18.7423 102.18 18.7423 102.568 18.7423C102.982 18.7423 103.189 18.7423 103.189 18.7423C103.189 17.992 103.189 17.3581 103.189 16.8407C103.189 16.7372 103.189 16.6467 103.189 16.5691C103.189 16.4915 103.189 16.4268 103.189 16.375C103.189 16.2974 103.189 16.2457 103.189 16.2198C103.189 16.1681 103.189 16.1422 103.189 16.1422C103.189 14.0208 102.128 12.96 100.006 12.96C97.678 12.96 94.3665 13.1153 90.0718 13.4257V11.3301C92.6848 10.6057 96.0352 10.2177 100.123 10.1659C100.149 10.1659 100.187 10.1659 100.239 10.1659C101.947 10.1659 103.344 10.6704 104.43 11.6794C105.517 12.6625 106.06 14.1501 106.06 16.1422V31.1605H103.926L103.189 28.6768L102.606 28.9485C102.244 29.1296 101.753 29.3624 101.132 29.647C100.511 29.9057 99.8382 30.1773 99.1138 30.4619C98.3894 30.7206 97.6133 30.9406 96.7854 31.1217C95.9575 31.3027 95.2202 31.3933 94.5734 31.3933C93.0988 31.3933 91.8699 30.9406 90.8868 30.0351C89.9037 29.1296 89.4121 27.8748 89.4121 26.2708ZM92.2838 26.0768C92.2838 27.7066 93.047 28.5216 94.5734 28.5216C95.5048 28.5216 96.6819 28.3534 98.1049 28.0171C99.5536 27.6808 100.77 27.3574 101.753 27.0469L103.189 26.5424V20.9931L94.5734 21.614C93.7973 21.6916 93.2152 21.9632 92.8271 22.4289C92.4649 22.8946 92.2838 23.4638 92.2838 24.1364V26.0768Z" fill="#1668E2"/>
<path d="M109.924 20.7602C109.924 18.4835 110.079 16.6596 110.389 15.2884C110.7 13.8914 111.256 12.8436 112.058 12.1451C112.886 11.4207 113.791 10.955 114.775 10.748C115.784 10.5152 117.168 10.3988 118.927 10.3988C120.35 10.3988 121.462 10.4635 122.264 10.5928C123.066 10.7222 123.855 11.0197 124.631 11.4854C125.408 11.9511 125.964 12.6884 126.3 13.6974C126.637 14.7063 126.805 16.0387 126.805 17.6945C126.805 20.8508 125.032 22.4289 121.488 22.4289H112.795C112.795 24.8349 113.067 26.4519 113.61 27.2798C114.154 28.0818 115.188 28.4828 116.715 28.4828C116.896 28.4828 117.168 28.4828 117.53 28.4828C117.892 28.4828 118.164 28.4828 118.345 28.4828C121.967 28.4828 124.657 28.3534 126.417 28.0947V30.2679C123.855 30.9923 120.621 31.3545 116.715 31.3545C114.102 31.3545 112.317 30.6042 111.36 29.1037C110.402 27.6032 109.924 24.822 109.924 20.7602ZM112.795 19.596H121.488C123.118 19.596 123.933 18.9622 123.933 17.6945C123.933 15.7024 123.635 14.4735 123.04 14.0078C122.471 13.5163 121.113 13.2705 118.966 13.2705C118.06 13.2705 117.388 13.2834 116.948 13.3093C116.534 13.3352 116.029 13.4128 115.434 13.5421C114.865 13.6456 114.451 13.8267 114.192 14.0854C113.96 14.3441 113.701 14.7063 113.416 15.172C113.158 15.6377 112.989 16.2327 112.912 16.9571C112.834 17.6815 112.795 18.5612 112.795 19.596Z" fill="#1668E2"/>
<path d="M130.701 31.1605V10.554H132.718L133.572 12.96C133.65 12.9342 133.934 12.7789 134.426 12.4943C134.918 12.1839 135.215 12.0028 135.319 11.9511C135.448 11.8993 135.732 11.757 136.172 11.5242C136.612 11.2655 136.923 11.1102 137.104 11.0585C137.285 11.0068 137.582 10.9033 137.996 10.748C138.41 10.5928 138.746 10.4893 139.005 10.4376C139.29 10.3858 139.626 10.3341 140.014 10.2824C140.402 10.2306 140.79 10.2047 141.178 10.2047C143.145 10.2047 144.697 10.8515 145.835 12.1451C146.974 13.4386 147.543 14.9909 147.543 16.8019V31.1605H144.671V16.8019C144.671 15.586 144.348 14.6675 143.701 14.0466C143.054 13.3998 142.213 13.0765 141.178 13.0765C140.195 13.0765 139.264 13.1799 138.384 13.3869C137.505 13.5939 136.793 13.8138 136.25 14.0466C135.732 14.2536 134.84 14.6675 133.572 15.2884V31.1605H130.701Z" fill="#1668E2"/>
</svg>
