<svg width="12" height="18" viewBox="0 0 12 18" fill="none" xmlns="http://www.w3.org/2000/svg">
<path d="M6.00008 0.666504C2.77508 0.666504 0.166748 3.27484 0.166748 6.49984C0.166748 10.8748 6.00008 17.3332 6.00008 17.3332C6.00008 17.3332 11.8334 10.8748 11.8334 6.49984C11.8334 3.27484 9.22508 0.666504 6.00008 0.666504ZM6.00008 8.58317C5.44755 8.58317 4.91764 8.36368 4.52694 7.97298C4.13624 7.58228 3.91675 7.05237 3.91675 6.49984C3.91675 5.9473 4.13624 5.4174 4.52694 5.0267C4.91764 4.636 5.44755 4.4165 6.00008 4.4165C6.55262 4.4165 7.08252 4.636 7.47322 5.0267C7.86392 5.4174 8.08342 5.9473 8.08342 6.49984C8.08342 7.05237 7.86392 7.58228 7.47322 7.97298C7.08252 8.36368 6.55262 8.58317 6.00008 8.58317Z" fill="black"/>
</svg>
