<svg width="217" height="46" viewBox="0 0 217 46" fill="none" xmlns="http://www.w3.org/2000/svg">
<path d="M60.2202 14.6359H52.1562V9.88386H74.1162V14.6359H66.0522V35.0839H60.2202V14.6359ZM81.8002 18.2719C82.4722 17.3359 83.3722 16.6279 84.5002 16.1479C85.6522 15.6679 86.9722 15.4279 88.4602 15.4279V20.6119C87.8362 20.5639 87.4162 20.5399 87.2002 20.5399C85.5922 20.5399 84.3322 20.9959 83.4202 21.9079C82.5082 22.7959 82.0522 24.1399 82.0522 25.9399V35.0839H76.4362V15.7159H81.8002V18.2719ZM99.5061 15.4279C102.506 15.4279 104.81 16.1479 106.418 17.5879C108.026 19.0039 108.83 21.1519 108.83 24.0319V35.0839H103.574V32.6719C102.518 34.4719 100.55 35.3719 97.6701 35.3719C96.1821 35.3719 94.8861 35.1199 93.7821 34.6159C92.7021 34.1119 91.8741 33.4159 91.2981 32.5279C90.7221 31.6399 90.4341 30.6319 90.4341 29.5039C90.4341 27.7039 91.1061 26.2879 92.4501 25.2559C93.8181 24.2239 95.9181 23.7079 98.7501 23.7079H103.214C103.214 22.4839 102.842 21.5479 102.098 20.8999C101.354 20.2279 100.238 19.8919 98.7501 19.8919C97.7181 19.8919 96.6981 20.0599 95.6901 20.3959C94.7061 20.7079 93.8661 21.1399 93.1701 21.6919L91.1541 17.7679C92.2101 17.0239 93.4701 16.4479 94.9341 16.0399C96.4221 15.6319 97.9461 15.4279 99.5061 15.4279ZM99.0741 31.5919C100.034 31.5919 100.886 31.3759 101.63 30.9439C102.374 30.4879 102.902 29.8279 103.214 28.9639V26.9839H99.3621C97.0581 26.9839 95.9061 27.7399 95.9061 29.2519C95.9061 29.9719 96.1821 30.5479 96.7341 30.9799C97.3101 31.3879 98.0901 31.5919 99.0741 31.5919ZM132.785 15.7159L124.613 35.0839H118.817L110.681 15.7159H116.477L121.841 28.8919L127.385 15.7159H132.785ZM153.522 25.4719C153.522 25.5439 153.486 26.0479 153.414 26.9839H138.762C139.026 28.1839 139.65 29.1319 140.634 29.8279C141.618 30.5239 142.842 30.8719 144.306 30.8719C145.314 30.8719 146.202 30.7279 146.97 30.4399C147.762 30.1279 148.494 29.6479 149.166 28.9999L152.154 32.2399C150.33 34.3279 147.666 35.3719 144.162 35.3719C141.978 35.3719 140.046 34.9519 138.366 34.1119C136.686 33.2479 135.39 32.0599 134.478 30.5479C133.566 29.0359 133.11 27.3199 133.11 25.3999C133.11 23.5039 133.554 21.7999 134.442 20.2879C135.354 18.7519 136.59 17.5639 138.15 16.7239C139.734 15.8599 141.498 15.4279 143.442 15.4279C145.338 15.4279 147.054 15.8359 148.59 16.6519C150.126 17.4679 151.326 18.6439 152.19 20.1799C153.078 21.6919 153.522 23.4559 153.522 25.4719ZM143.478 19.6759C142.206 19.6759 141.138 20.0359 140.274 20.7559C139.41 21.4759 138.882 22.4599 138.69 23.7079H148.23C148.038 22.4839 147.51 21.5119 146.646 20.7919C145.782 20.0479 144.726 19.6759 143.478 19.6759ZM157.26 8.37186H162.876V35.0839H157.26V8.37186ZM168.089 8.37186H173.705V35.0839H168.089V8.37186ZM197.889 25.4719C197.889 25.5439 197.853 26.0479 197.781 26.9839H183.129C183.393 28.1839 184.017 29.1319 185.001 29.8279C185.985 30.5239 187.209 30.8719 188.673 30.8719C189.681 30.8719 190.569 30.7279 191.337 30.4399C192.129 30.1279 192.861 29.6479 193.533 28.9999L196.521 32.2399C194.697 34.3279 192.033 35.3719 188.529 35.3719C186.345 35.3719 184.413 34.9519 182.733 34.1119C181.053 33.2479 179.757 32.0599 178.845 30.5479C177.933 29.0359 177.477 27.3199 177.477 25.3999C177.477 23.5039 177.921 21.7999 178.809 20.2879C179.721 18.7519 180.957 17.5639 182.517 16.7239C184.101 15.8599 185.865 15.4279 187.809 15.4279C189.705 15.4279 191.421 15.8359 192.957 16.6519C194.493 17.4679 195.693 18.6439 196.557 20.1799C197.445 21.6919 197.889 23.4559 197.889 25.4719ZM187.845 19.6759C186.573 19.6759 185.505 20.0359 184.641 20.7559C183.777 21.4759 183.249 22.4599 183.057 23.7079H192.597C192.405 22.4839 191.877 21.5119 191.013 20.7919C190.149 20.0479 189.093 19.6759 187.845 19.6759ZM206.992 18.2719C207.664 17.3359 208.564 16.6279 209.692 16.1479C210.844 15.6679 212.164 15.4279 213.652 15.4279V20.6119C213.028 20.5639 212.608 20.5399 212.392 20.5399C210.784 20.5399 209.524 20.9959 208.612 21.9079C207.7 22.7959 207.244 24.1399 207.244 25.9399V35.0839H201.628V15.7159H206.992V18.2719Z" fill="white"/>
<path d="M8.58796 17.4928L8.83573 17.8942L9.25089 17.6702L13.752 15.2413L14.2184 14.9896L13.94 14.5386L11.8984 11.2318H33.7349L22.8204 28.9261L20.7335 25.5399L20.4855 25.1376L20.0698 25.3625L15.5688 27.7985L15.1033 28.0505L15.3813 28.5009L22.3948 39.8642L22.8203 40.5537L23.2458 39.8641L44.0584 6.12948L44.5288 5.36694H43.6329H2H1.10383L1.57452 6.12955L8.58796 17.4928Z" fill="#069ABA" stroke="#069ABA"/>
</svg>
